<svg xmlns="http://www.w3.org/2000/svg" xml:space="preserve" width="8.66666in" height="8.66666in" style="shape-rendering:geometricPrecision; text-rendering:geometricPrecision; image-rendering:optimizeQuality; fill-rule:evenodd; clip-rule:evenodd" viewBox="0 0 8.66666 8.66666" xmlns:xlink="http://www.w3.org/1999/xlink">
<defs>
<style type="text/css">
   
    .fil0 {fill:black}
    .fil1 {fill:white}
   
  </style>
</defs>
<g id="Layer_x0020_1">
<metadata id="CorelCorpID_0Corel-Layer"></metadata>
<circle class="fil0" cx="4.33333" cy="4.33333" r="4.33333" id="id_101" style="fill: rgb(240, 240, 240);"></circle>
<g id="_275540464">
<path id="_275541328" class="fil1" d="M6.89333 5.93256l0 -3.19846c0,-0.0346811 -0.014248,-0.0662717 -0.0372008,-0.0892244 -0.0229528,-0.0229528 -0.0545433,-0.0372008 -0.0892244,-0.0372008l-4.32961 0c-0.0346772,0 -0.0662677,0.014248 -0.0892205,0.0372008 -0.0229528,0.0229528 -0.0372047,0.0545433 -0.0372047,0.0892244l0 1.0009 1.73614 0c0.0811496,0 0.154866,0.0331417 0.208252,0.0865236 0.0533819,0.0533819 0.0865197,0.127098 0.0865197,0.208248l0 0.607114c0,0.0811496 -0.0331378,0.154866 -0.0865197,0.208248 -0.0533858,0.0533819 -0.127102,0.0865236 -0.208256,0.0865236l-1.73613 0 0 1.0009c0,0.0346811 0.014252,0.0662717 0.0372047,0.0892244 0.0229528,0.0229528 0.0545433,0.0372008 0.0892205,0.0372008l4.32961 0c0.0346811,0 0.0662717,-0.014248 0.0892244,-0.0372008 0.0229528,-0.0229528 0.0372008,-0.0545433 0.0372008,-0.0892244z"></path>
<g>
<path id="_275540608" class="fil1" d="M4.14043 4.63689l0 -0.60711c0,-0.0346772 -0.0144764,-0.0662717 -0.0377874,-0.0892244 -0.023315,-0.0229528 -0.0554055,-0.0372008 -0.090626,-0.0372008l-1.84893 0 -0.261343 0c-0.0352205,0 -0.0673071,0.0142559 -0.090622,0.0372008 -0.023315,0.0229528 -0.0377874,0.0545472 -0.0377874,0.0892244l0 0.60711c0,0.0346772 0.0144724,0.0662717 0.0377874,0.0892244 0.023315,0.0229528 0.0554016,0.0372047 0.090622,0.0372047l0.261343 0 1.84893 0c0.0352244,0 0.067315,-0.014248 0.0906299,-0.0372008 0.023311,-0.0229528 0.0377874,-0.0545472 0.0377874,-0.0892283zm-1.59089 -0.619098c0.0884961,0 0.168626,0.0353268 0.226626,0.0924291 0.0579961,0.0570984 0.093878,0.135988 0.093878,0.223114 0,0.087126 -0.0358819,0.166016 -0.093878,0.223114 -0.058,0.0571024 -0.13813,0.0924291 -0.226626,0.0924291 -0.0884921,0 -0.168626,-0.0353268 -0.226626,-0.0924252 -0.0579961,-0.0571024 -0.093878,-0.135996 -0.093878,-0.223118 0,-0.087122 0.0358819,-0.166016 0.093878,-0.223118 0.058,-0.0570984 0.138134,-0.0924252 0.226626,-0.0924252z"></path>
<path id="_275540536" class="fil1" d="M2.69904 4.33333c0,-0.0406535 -0.0167362,-0.0774567 -0.0437835,-0.104091 -0.0270512,-0.0266299 -0.0644331,-0.0431063 -0.105728,-0.0431063 -0.0412913,0 -0.0786772,0.0164764 -0.105728,0.0431024 -0.0270472,0.0266339 -0.0437835,0.0634409 -0.0437835,0.104094 0,0.0406535 0.0167362,0.0774606 0.0437835,0.104094 0.0270512,0.026626 0.064437,0.0431024 0.105728,0.0431024 0.0412953,0 0.0786772,-0.0164764 0.105728,-0.0431063 0.0270472,-0.0266339 0.0437835,-0.063437 0.0437835,-0.104091z"></path>
</g>
</g>
</g>
</svg>