<svg xmlns="http://www.w3.org/2000/svg" xml:space="preserve" width="8.66666in" height="8.66666in" style="shape-rendering:geometricPrecision; text-rendering:geometricPrecision; image-rendering:optimizeQuality; fill-rule:evenodd; clip-rule:evenodd" viewBox="0 0 8.66666 8.66666" xmlns:xlink="http://www.w3.org/1999/xlink">
<defs>
<style type="text/css">
   
    .fil0 {fill:black}
    .fil1 {fill:white}
   
  </style>
</defs>
<g id="Layer_x0020_1">
<metadata id="CorelCorpID_0Corel-Layer"></metadata>
<circle class="fil0" cx="4.33333" cy="4.33333" r="4.33333" id="id_101" style="fill: rgb(245, 245, 245);"></circle>
<g id="_278458184">
<path id="_278463176" class="fil1" d="M2.4021 4.97674c-0.0737165,0.0482638 -0.17428,0.0920315 -0.26026,0.108386 -0.053626,0.0101969 -0.110024,0.0119134 -0.16285,-0.00352362 -0.140453,-0.0410472 -0.188831,-0.180374 -0.201508,-0.31276 -0.0110394,-0.115283 0.00145276,-0.239126 0.019748,-0.353047 0.0287087,-0.178768 0.0761732,-0.357654 0.128815,-0.530717 0.0200079,-0.0657913 0.0896181,-0.103035 0.155437,-0.0830709 0.0658268,0.0199646 0.10311,0.0896535 0.0830866,0.15548 -0.0380118,0.12498 -0.0728071,0.252543 -0.0978268,0.380823 -0.0160512,0.0823189 -0.0292087,0.169126 -0.0303937,0.253142 -0.00080315,0.056874 0.00376378,0.165587 0.0562913,0.203366 0.047685,0.0342953 0.13061,0.000200787 0.174425,-0.0280039 0.0577126,-0.0371575 0.135433,-0.0201614 0.172492,0.0375866 0.0370512,0.0577244 0.0200866,0.135295 -0.0374567,0.172339z"></path>
<path id="_278462576" class="fil1" d="M5.67552 4.36598c-0.0494528,-0.0494528 -0.0800512,-0.11778 -0.0800512,-0.193236 0,-0.0754528 0.0305984,-0.143783 0.0800512,-0.193236 0.0494606,-0.0494567 0.117783,-0.0800472 0.193236,-0.0800472 0.0754567,0 0.14378,0.0305906 0.193236,0.0800472 0.0494606,0.0494567 0.0800472,0.117783 0.0800472,0.193236 0,0.0754567 -0.0305866,0.14378 -0.0800472,0.193236 -0.0494528,0.0494528 -0.11778,0.0800512 -0.193236,0.0800512 -0.0754528,0 -0.143783,-0.0305906 -0.193236,-0.0800512zm-2.45943 -0.972492l0 0zm3.30255 0.754976c-0.0243661,-0.0545945 -0.304449,-0.6635 -0.703929,-0.71798l-0.000192913 0.000216535c-0.0455472,-0.0062126 -0.077437,-0.0481811 -0.0712244,-0.0937283 0.0016378,-0.0120512 0.00579134,-0.0231496 0.0118425,-0.0328425l0.313476 -0.626961c-0.133154,-0.077689 -0.522079,-0.189933 -0.992551,0.719654l0.000125984 0.00019685c-0.0211181,0.0408307 -0.0713465,0.056815 -0.112181,0.0356969 -0.0094252,-0.00487402 -0.0175236,-0.0113071 -0.0241535,-0.018811 -0.0613465,-0.0601378 -0.127917,-0.110413 -0.198598,-0.151524 -3.14961e-005,-3.93701e-006 -5.51181e-005,-1.9685e-005 -8.26772e-005,-3.54331e-005 -0.00472047,-0.00204331 -0.00915748,-0.00447244 -0.0132874,-0.00722835 -0.205717,-0.115543 -0.445906,-0.154563 -0.693496,-0.133563 -0.276232,0.0234291 -0.561091,0.121579 -0.81828,0.271965 -0.0027126,0.00158268 -0.00548031,0.003 -0.00829134,0.00425197 -0.199433,0.117673 -0.381303,0.26648 -0.528606,0.435854 -0.179748,0.206689 -0.307598,0.44328 -0.352035,0.689992 -0.0786811,0.436937 0.107,0.912965 0.735343,1.32055l0.000149606 -0.000224409c0.0216929,0.0140669 0.0346614,0.0365315 0.0374055,0.0603543l0.115323 0.759209 0.426772 -0.00836614 0.376839 -0.466087 -1.9685e-005 -0.000314961c0.0164409,-0.0203228 0.0404764,-0.0308819 0.0647362,-0.0309055l0.696815 0c0.033622,0 0.0625906,0.0199409 0.0757283,0.0486378l0.266488 0.461575 0.322512 0 0.114315 -0.426646c0.00963386,-0.051689 0.118024,-0.508894 1.0313,-1.15538l-0.000244094 -0.000346457c0.0147402,-0.0104331 0.0317087,-0.0153937 0.0484921,-0.0152992l0.254209 0 0 -0.868185 -0.296843 0c-0.0355787,0 -0.0659409,-0.0223268 -0.0778504,-0.0537283z"></path>
<path id="_278462816" class="fil1" d="M4.76501 2.82583c0,-0.228437 -0.0925906,-0.435248 -0.242287,-0.584937 -0.149689,-0.149693 -0.356508,-0.242283 -0.584941,-0.242283 -0.228437,0 -0.435248,0.0925906 -0.584937,0.242283 -0.149697,0.149689 -0.242287,0.3565 -0.242287,0.584937 0,0.0822165 0.0117913,0.161189 0.0337402,0.235335 0.0152835,0.0516181 0.0354528,0.101122 0.0599764,0.147961 0.0239252,-0.0129094 0.0480433,-0.0253976 0.0723346,-0.0374528 0.200165,-0.0993228 0.412252,-0.169256 0.623287,-0.201724l0 -0.145949c-0.058315,-0.0110197 -0.117697,-0.0335906 -0.178697,-0.0677205 -0.0451417,-0.0252559 -0.0798031,-0.060189 -0.104256,-0.104799 -0.0244567,-0.0446024 -0.0365472,-0.0951181 -0.0365472,-0.151815 0,-0.100768 0.0357362,-0.182453 0.106945,-0.244799 0.0478307,-0.042185 0.118772,-0.0677126 0.212555,-0.0771181l0 -0.0677126 0.0835669 0 0 0.0677126c0.0822283,0.00779528 0.147791,0.0319724 0.195894,0.0722795 0.0620669,0.0513268 0.0991496,0.121996 0.11178,0.211748l-0.146449 0.0220354c-0.00832677,-0.055626 -0.0257953,-0.0983504 -0.0523976,-0.127909 -0.0263346,-0.0295551 -0.0626063,-0.0491732 -0.108827,-0.0585787l0 0.408441c0.0712047,0.0180039 0.118504,0.0319764 0.141614,0.0419213 0.044063,0.0193504 0.0800748,0.0429921 0.107752,0.0706693 0.0279449,0.0279449 0.0494409,0.061 0.0642205,0.0991535 0.00497638,0.0127126 0.00913386,0.0257441 0.0124646,0.0391142 0.146315,0.0143819 0.287724,0.0507283 0.419457,0.112024 0.00764173,-0.0247717 0.0141142,-0.049878 0.0193307,-0.0752638 0.0109449,-0.053248 0.0167087,-0.10926 0.0167087,-0.167551z"></path>
<path id="_278462840" class="fil1" d="M3.8999 2.68777l0 -0.392051c-0.0550906,0.00833071 -0.098622,0.0303622 -0.130327,0.0661024 -0.0317087,0.0357402 -0.0475591,0.0779252 -0.0475591,0.126835 0,0.0480984 0.0134331,0.0886732 0.0405709,0.121181 0.0271417,0.0325157 0.0728228,0.0585827 0.137315,0.0779331z"></path>
<path id="_278462048" class="fil1" d="M4.13583 2.92746c-0.0255315,-0.0311732 -0.0763189,-0.0591181 -0.152362,-0.0838386l0 0.115445c0.0560157,-0.0059685 0.111843,-0.00920866 0.167224,-0.00957087 -0.00435433,-0.00783858 -0.00931102,-0.015185 -0.0148622,-0.0220354z"></path>
<path id="_278461952" class="fil1" d="M5.97556 4.17274c0,-0.0294921 -0.0119528,-0.0562047 -0.0312756,-0.0755236 -0.019315,-0.0193228 -0.0460315,-0.0312756 -0.0755236,-0.0312756 -0.0294921,0 -0.0562008,0.0119528 -0.0755236,0.0312756 -0.0193189,0.0193189 -0.0312795,0.0460315 -0.0312795,0.0755236 0,0.0294921 0.0119606,0.0562087 0.0312795,0.0755236 0.0193228,0.0193268 0.0460315,0.0312795 0.0755236,0.0312795 0.0294921,0 0.0562087,-0.0119567 0.0755236,-0.0312795 0.0193228,-0.019315 0.0312756,-0.0460315 0.0312756,-0.0755236z"></path>
</g>
</g>
</svg>