<svg version="1.1" id="cash-register-pay-slip-receipt-cashier-machine" xmlns="http://www.w3.org/2000/svg" xmlns:xlink="http://www.w3.org/1999/xlink" x="0px" y="0px" viewBox="0 0 96 96" style="enable-background:new 0 0 96 96;" xml:space="preserve">
<linearGradient id="SVGID_1_" gradientUnits="userSpaceOnUse" x1="14.0589" y1="81.9411" x2="81.9411" y2="14.0589">
<stop offset="0" style="stop-color: rgb(240, 240, 240);" id="id_110"></stop>
<stop offset="0.5005" style="stop-color: rgb(245, 245, 245);" id="id_111"></stop>
<stop offset="1" style="stop-color: rgb(242, 245, 245);" id="id_112"></stop>
</linearGradient>
<circle style="fill:url(#SVGID_1_);" cx="48" cy="48" r="48" id="id_101"></circle>
<path style="fill:#FFFFFF;" d="M22,61v12c0,0.553,0.447,1,1,1h50c0.553,0,1-0.447,1-1V61c0-0.553-0.447-1-1-1H23
	C22.447,60,22,60.447,22,61z M24,62h48v10H24V62z" id="id_102"></path>
<path style="fill:#FFFFFF;" d="M51,64h-6c-0.553,0-1,0.447-1,1v4c0,0.553,0.447,1,1,1h6c0.553,0,1-0.447,1-1v-4
	C52,64.447,51.553,64,51,64z M50,68h-4v-2h4V68z" id="id_103"></path>
<path style="fill:#FFFFFF;" d="M73,52c2.757,0,5-2.243,5-5V23c0-2.757-2.243-5-5-5H43c-2.757,0-5,2.243-5,5v24c0,2.757,2.243,5,5,5
	h7v4H38v-3c0-0.553-0.447-1-1-1h-1V38c0-0.404-0.243-0.77-0.617-0.924c-0.374-0.156-0.804-0.07-1.09,0.217L33,38.586l-1.293-1.293
	c-0.391-0.391-1.023-0.391-1.414,0L29,38.586l-1.293-1.293c-0.391-0.391-1.023-0.391-1.414,0L25,38.586l-1.293-1.293
	c-0.286-0.286-0.716-0.372-1.09-0.217C22.243,37.23,22,37.596,22,38v14h-1c-0.553,0-1,0.447-1,1v3h-1c-0.553,0-1,0.447-1,1v20
	c0,0.553,0.447,1,1,1h58c0.553,0,1-0.447,1-1V57c0-0.553-0.447-1-1-1H66v-4H73z M40,47V23c0-1.654,1.346-3,3-3h30
	c1.654,0,3,1.346,3,3v24c0,1.654-1.346,3-3,3h-8H51h-8C41.346,50,40,48.654,40,47z M24,40.414l0.293,0.293
	c0.391,0.391,1.023,0.391,1.414,0L27,39.414l1.293,1.293c0.391,0.391,1.023,0.391,1.414,0L31,39.414l1.293,1.293
	c0.391,0.391,1.023,0.391,1.414,0L34,40.414V52H24V40.414z M22,54h1h12h1v2H22V54z M76,76H20V58h1h16h14h14h11V76z M64,56H52v-4h12
	V56z" id="id_104"></path>
<path style="fill:#FFFFFF;" d="M58,44c4.963,0,9-4.037,9-9s-4.037-9-9-9c-4.963,0-9,4.037-9,9S53.037,44,58,44z M58,28
	c3.859,0,7,3.141,7,7s-3.141,7-7,7c-3.859,0-7-3.141-7-7S54.141,28,58,28z" id="id_105"></path>
<rect x="26" y="44" style="fill:#FFFFFF;" width="6" height="2" id="id_106"></rect>
<rect x="26" y="48" style="fill:#FFFFFF;" width="6" height="2" id="id_107"></rect>
<path style="fill:#FFFFFF;" d="M74,47V23c0-0.553-0.447-1-1-1H43c-0.553,0-1,0.447-1,1v24c0,0.553,0.447,1,1,1h30
	C73.553,48,74,47.553,74,47z M72,46H44V24h28V46z" id="id_108"></path>
<path style="fill:#FFFFFF;" d="M58,38c-0.552,0-1-0.448-1-1h-2c0,1.302,0.838,2.402,2,2.816V41h2v-1.184
	c1.161-0.414,2-1.514,2-2.816c0-0.266-0.106-0.52-0.293-0.707l-3.644-3.644C57.206,32.271,57.572,32,58,32c0.552,0,1,0.448,1,1h2
	c0-1.302-0.839-2.402-2-2.816V29h-2v1.184c-1.162,0.414-2,1.514-2,2.816c0,0.266,0.105,0.52,0.293,0.707l3.643,3.644
	C58.794,37.729,58.428,38,58,38z" id="id_109"></path>
</svg>