<svg xmlns="http://www.w3.org/2000/svg" xml:space="preserve" width="8.66666in" height="8.66666in" style="shape-rendering:geometricPrecision; text-rendering:geometricPrecision; image-rendering:optimizeQuality; fill-rule:evenodd; clip-rule:evenodd" viewBox="0 0 8.66666 8.66666" xmlns:xlink="http://www.w3.org/1999/xlink">
<defs>
<style type="text/css">
   
    .fil0 {fill:black}
    .fil1 {fill:#FFFFFE}
   
  </style>
</defs>
<g id="Layer_x0020_1">
<metadata id="CorelCorpID_0Corel-Layer"></metadata>
<circle class="fil0" cx="4.33333" cy="4.33333" r="4.33333" id="id_102" style="fill: rgb(240, 240, 240);"></circle>
<g id="_325655160">
<path id="_325655184" class="fil1" d="M6.14502 2.64921l0 0zm-2.14281 -0.140319l0 0zm2.35964 0.333343c-0.017563,-0.0423622 -0.0376024,-0.0836457 -0.0599331,-0.123661l0.209402 -0.209398 0.000295276 -0.000287402c0.0312402,-0.0312402 0.0312402,-0.0818937 -3.93701e-006,-0.11313l-0.350382 -0.350386 -0.000287402 -0.000295276c-0.0312402,-0.0312402 -0.0818937,-0.0312402 -0.11313,3.93701e-006l-0.209685 0.209685c-0.0400118,-0.0223307 -0.0812874,-0.0423661 -0.12365,-0.0599291 -0.0418425,-0.0173425 -0.0850984,-0.0324173 -0.129598,-0.0450551l0 -0.296457c0,-0.0441811 -0.0358189,-0.08 -0.08,-0.08l-0.495929 0c-0.0441811,0 -0.08,0.0358189 -0.08,0.08l0 0.296453c-0.0445039,0.0126378 -0.0877559,0.0277126 -0.129598,0.0450591 -0.0423622,0.0175591 -0.0836339,0.0375945 -0.12365,0.0599291l-0.209394 -0.209394 -0.000287402 -0.000295276c-0.0312402,-0.0312402 -0.0818937,-0.0312402 -0.11313,3.93701e-006l-0.350236 0.35024 -0.000444882 0.000433071c-0.0312402,0.0312402 -0.0312362,0.0818976 7.87402e-006,0.11313l0.209693 0.209689c-0.0223307,0.0400157 -0.0423701,0.0812992 -0.0599331,0.123661 -0.0173425,0.0418386 -0.0324134,0.0850827 -0.0450512,0.129579l-0.296465 0c-0.0441811,0 -0.08,0.0358189 -0.08,0.08l0 0.495929c0,0.0441811 0.0358189,0.08 0.08,0.08l0.296465 0c0.0126378,0.0445 0.0277126,0.087748 0.0450551,0.129591 0.017563,0.0423583 0.0376024,0.0836299 0.0599331,0.123646l-0.209406 0.209406 -0.000295276 0.000287402c-0.0312402,0.0312402 -0.0312402,0.0818937 3.93701e-006,0.11313l0.350382 0.350382 0.000287402 0.000295276c0.0312402,0.0312402 0.0818937,0.0312402 0.11313,-3.93701e-006l0.209685 -0.209685c0.0400157,0.0223346 0.0812953,0.0423701 0.123661,0.0599331 0.0418425,0.0173425 0.0850906,0.0324134 0.129587,0.0450512l0 0.296457c0,0.0441811 0.0358189,0.08 0.08,0.08l0.495929 0c0.0441811,0 0.08,-0.0358189 0.08,-0.08l0 -0.296457c0.0444961,-0.0126378 0.087748,-0.0277087 0.129587,-0.0450551 0.0423661,-0.0175591 0.0836457,-0.0375984 0.123661,-0.0599291l0.209394 0.209394 0.000287402 0.000295276c0.0312402,0.0312402 0.0818937,0.0312402 0.11313,-3.93701e-006l0.350382 -0.350382 0.000295276 -0.000287402c0.0312402,-0.0312402 0.0312402,-0.0818937 -3.93701e-006,-0.11313l-0.209693 -0.209693c0.0223307,-0.0400157 0.0423661,-0.0812874 0.0599252,-0.12365 0.0173465,-0.0418425 0.0324213,-0.0850906 0.0450591,-0.129591l0.296465 0c0.0441811,0 0.08,-0.0358189 0.08,-0.08l0 -0.495929c0,-0.0441811 -0.0358189,-0.08 -0.08,-0.08l-0.296465 0c-0.0126378,-0.0444961 -0.0277087,-0.0877402 -0.0450512,-0.129579zm-1.10493 -0.113181c0.157591,0 0.300276,0.0638898 0.403555,0.167169 0.103283,0.10328 0.167169,0.245969 0.167169,0.403559 0,0.157591 -0.0638858,0.300276 -0.167169,0.403555 -0.10328,0.10328 -0.245965,0.167169 -0.403555,0.167169 -0.157591,0 -0.30028,-0.0638858 -0.403559,-0.167169 -0.10328,-0.10328 -0.167169,-0.245965 -0.167169,-0.403555 0,-0.157594 0.0638898,-0.30028 0.167169,-0.403559 0.10328,-0.103283 0.245969,-0.167169 0.403559,-0.167169z"></path>
<path id="_325654776" class="fil1" d="M3.40072 4.87904c-0.0275354,-0.0114173 -0.0559055,-0.0215551 -0.0850276,-0.0303386l0 -0.207744c0,-0.0441811 -0.0358189,-0.08 -0.08,-0.08l-0.372406 0c-0.0441811,0 -0.08,0.0358189 -0.08,0.08l0 0.207744c-0.029122,0.00878346 -0.0574921,0.0189213 -0.0850236,0.0303386 -0.0278307,0.0115394 -0.0550827,0.0244882 -0.0816575,0.0387598l-0.146646 -0.146646 -0.000287402 -0.000295276c-0.0312402,-0.0312402 -0.0818937,-0.0312402 -0.11313,3.93701e-006l-0.263039 0.263039 -0.000295276 0.000287402c-0.0312402,0.0312402 -0.0312402,0.0818937 3.93701e-006,0.11313l0.146945 0.146945c-0.0142717,0.0265787 -0.0272244,0.0538228 -0.0387638,0.0816575 -0.0114134,0.0275315 -0.0215512,0.0558976 -0.0303346,0.0850157l-0.207752 0c-0.0441811,0 -0.08,0.0358189 -0.08,0.08l0 0.372406c0,0.0441811 0.0358189,0.08 0.08,0.08l0.207752 0c0.0087874,0.0291181 0.0189213,0.0574843 0.0303346,0.0850197 0.0115394,0.0278307 0.0244882,0.0550827 0.0387598,0.0816575l-0.14665 0.14665 -0.000295276 0.000287402c-0.0312402,0.0312402 -0.0312402,0.0818937 3.93701e-006,0.11313l0.263039 0.263039 0.000287402 0.000295276c0.0312402,0.0312402 0.0818937,0.0312402 0.11313,-3.93701e-006l0.146937 -0.146937c0.0265748,0.0142756 0.0538268,0.0272244 0.0816614,0.0387638 0.0275354,0.0114134 0.0559016,0.0215512 0.0850197,0.0303346l0 0.207748c0,0.0441811 0.0358189,0.08 0.08,0.08l0.372406 0c0.0441811,0 0.08,-0.0358189 0.08,-0.08l0 -0.207748c0.029122,-0.00878346 0.0574921,-0.0189213 0.0850236,-0.0303386 0.0278307,-0.0115394 0.0550827,-0.0244882 0.0816575,-0.0387598l0.146646 0.146646 0.000287402 0.000295276c0.0312402,0.0312402 0.0818937,0.0312402 0.11313,-3.93701e-006l0.263039 -0.263039 0.000295276 -0.000287402c0.0312402,-0.0312402 0.0312402,-0.0818937 -3.93701e-006,-0.11313l-0.146941 -0.146941c0.0142717,-0.0265748 0.0272205,-0.0538268 0.0387598,-0.0816575 0.0114134,-0.0275354 0.0215472,-0.0559016 0.0303346,-0.0850197l0.207756 0c0.0441811,0 0.08,-0.0358189 0.08,-0.08l0 -0.372406c0,-0.0441811 -0.0358189,-0.08 -0.08,-0.08l-0.207752 0c-0.00878346,-0.0291181 -0.0189213,-0.0574803 -0.0303346,-0.0850079 -0.0115394,-0.0278386 -0.0244882,-0.0550906 -0.0387638,-0.0816693l0.14665 -0.14665 0.000295276 -0.000287402c0.0312402,-0.0312402 0.0312402,-0.0818937 -3.93701e-006,-0.11313l-0.263039 -0.263039 -0.000287402 -0.000295276c-0.0312402,-0.0312402 -0.0818937,-0.0312402 -0.11313,3.93701e-006l-0.146937 0.146937c-0.0265709,-0.0142756 -0.0538189,-0.0272244 -0.0816535,-0.0387598zm-0.668358 0.530972c0.0811614,-0.0811614 0.193287,-0.13137 0.31713,-0.13137 0.123843,0 0.235972,0.0502087 0.317134,0.13137 0.0811614,0.0811614 0.13137,0.193295 0.13137,0.31713 0,0.123835 -0.0502087,0.235969 -0.13137,0.31713 -0.0811614,0.0811614 -0.193291,0.13137 -0.317134,0.13137 -0.123843,0 -0.235969,-0.0502008 -0.31713,-0.13137 -0.0811693,-0.0811614 -0.13137,-0.193287 -0.13137,-0.31713 0,-0.123835 0.0502008,-0.235969 0.13137,-0.31713z"></path>
</g>
</g>
</svg>